<?xml version="1.0" encoding="utf-8"?>
<!-- Generator: Adobe Illustrator 16.0.0, SVG Export Plug-In . SVG Version: 6.00 Build 0)  -->
<!DOCTYPE svg PUBLIC "-//W3C//DTD SVG 1.1//EN" "http://www.w3.org/Graphics/SVG/1.1/DTD/svg11.dtd">
<svg version="1.1" id="Capa_1" xmlns="http://www.w3.org/2000/svg" xmlns:xlink="http://www.w3.org/1999/xlink" x="0px" y="0px"
	 width="33.625px" height="33.501px" viewBox="0 0 33.625 33.501" enable-background="new 0 0 33.625 33.501" xml:space="preserve">
<g>
	<path fill="#FFFFFF" d="M17.536,27.026c0,0.4-0.323,0.723-0.723,0.723l0,0c-0.4,0-0.724-0.322-0.724-0.723V6.475
		c0-0.399,0.324-0.724,0.724-0.724l0,0c0.4,0,0.723,0.324,0.723,0.724V27.026z"/>
	<path fill="#FFFFFF" d="M6.536,17.472c-0.399,0-0.723-0.324-0.723-0.725l0,0c0-0.4,0.324-0.724,0.724-0.723l20.552,0.005
		c0.4,0.001,0.725,0.324,0.725,0.723l0,0c0,0.4-0.324,0.726-0.725,0.725L6.536,17.472z"/>
</g>
</svg>
