<?xml version="1.0" encoding="utf-8"?>
<!-- Generator: Adobe Illustrator 16.0.0, SVG Export Plug-In . SVG Version: 6.00 Build 0)  -->
<!DOCTYPE svg PUBLIC "-//W3C//DTD SVG 1.1//EN" "http://www.w3.org/Graphics/SVG/1.1/DTD/svg11.dtd">
<svg version="1.1" xmlns="http://www.w3.org/2000/svg" xmlns:xlink="http://www.w3.org/1999/xlink" x="0px" y="0px"
	 width="101.083px" height="31.333px" viewBox="0 0 101.083 31.333" enable-background="new 0 0 101.083 31.333"
	 xml:space="preserve">
<g id="Capa_1">
	<path fill="#FFFFFF" d="M21.618,24.633c-0.07,0.125-0.127,0.287-0.223,0.371c-0.064,0.057-0.16,0.07-0.229,0.123
		c-0.252,0.205-0.299,0.5-0.33,0.814c-0.234,0.07-0.287,0.277-0.352,0.479c0.377,0.219,0.777-0.162,0.949-0.424l-0.023-0.156
		c0.365-0.414,0.846-0.818,0.564-1.633C21.774,24.223,21.728,24.436,21.618,24.633z M27.458,16.211
		c0.008-0.002,0.014-0.004,0.02-0.004c0.002-0.141,0.004-0.281,0.002-0.424C27.401,15.871,27.376,16.083,27.458,16.211z
		 M1.44,13.534c-0.025,0.144-0.047,0.29-0.068,0.437c-0.01,0.127-0.014,0.256,0.012,0.377C1.446,14.121,1.468,13.785,1.44,13.534z
		 M27.296,13.881c0.014,0.021,0.023,0.051,0.033,0.076c-0.094-0.64-0.232-1.262-0.41-1.863c-0.018-0.01-0.035-0.02-0.047-0.039
		c-0.072-0.257-0.178-0.468-0.248-0.729c0.006-0.021,0.02-0.029,0.035-0.032c-0.518-1.428-1.258-2.73-2.176-3.871
		c-0.004,0-0.008-0.004-0.012-0.004c-0.039,0.02,0.035,0.063-0.004,0.107c-0.074-0.113-0.146-0.234-0.203-0.371
		C23.284,6,22.124,5.021,20.829,4.264c-0.414-0.174-0.816-0.389-1.211-0.628V3.635c-1.369-0.621-2.848-1.008-4.383-1.123
		c0.303,0.038,0.641,0.063,0.859,0.142c0.254,0.089,0.455,0.178,0.711,0.216c0.037,0.105,0.164,0.084,0.248,0.125
		c0.029,0.119,0.145,0.119,0.203,0.201c0.193-0.004,0.277,0.148,0.398,0.229c0.219,0.143,0.504,0.178,0.65,0.403
		c-0.035,0.077-0.127,0.11-0.127,0.214c0.08,0.101,0.129,0.242,0.193,0.365c-0.008,0.027-0.037,0.043-0.08,0.047
		c0.053,0.129,0.178,0.158,0.205,0.325C18.3,4.822,18.138,4.502,17.954,4.52c-0.123,0.014-0.203,0.141-0.219,0.299
		c0.078,0.126,0.217,0.165,0.273,0.318c-0.068,0.109-0.189,0.186-0.213,0.333c0.197,0.233,0.182,0.63,0.357,0.892
		c-0.025,0.007-0.064,0.003-0.066,0.029c0.102,0.094,0.213,0.023,0.291,0.082c-0.166,0.105-0.137,0.359-0.455,0.35
		c0.082,0.119,0.266,0.205,0.295,0.332c-0.227-0.082-0.436-0.188-0.652-0.279c0.039,0.379,0.33,0.521,0.496,0.782
		c-0.119,0.11-0.264,0.161-0.451,0.12c-0.127,0.072-0.213,0.18-0.209,0.35c-0.193,0.075-0.213,0.284-0.439,0.332
		c-0.123,0.186-0.348,0.295-0.471,0.479c-0.107-0.006-0.268-0.049-0.352-0.021c0.053,0.149,0.172,0.232,0.193,0.365
		c-0.219,0.02-0.207,0.215-0.379,0.271c-0.008,0.185-0.209,0.222-0.24,0.39c-0.195-0.037-0.385-0.085-0.488-0.25
		c0.113-0.024-0.029-0.076,0.018-0.126c0.305,0.003,0.66-0.084,0.758-0.288C15.907,9.23,15.87,9.09,15.745,9.065
		c-0.078-0.018-0.178,0.024-0.258,0.02c-0.287-0.023-0.615-0.124-0.896-0.048c-0.236-0.209-0.438-0.104-0.73-0.001
		c-0.311,0.108-0.424,0.259-0.508,0.466c-0.361,0.074-0.313,0.465-0.668,0.543c-0.088,0.404-0.432,0.611-0.807,0.796
		c-0.111,0.241-0.182,0.456-0.059,0.81c0.172,0.043,0.369,0.053,0.568,0.06c0.156,0.218,0.334,0.405,0.477,0.644
		c0.121-0.02,0.238-0.039,0.344-0.032c0.184-0.228,0.518-0.483,0.398-0.843l0.084-0.012c-0.113-0.16-0.266-0.277-0.262-0.497
		c0.002-0.212,0.17-0.338,0.291-0.505c0.119-0.162,0.186-0.305,0.365-0.357c0.008,0.313-0.168,0.48-0.301,0.686
		c0.088,0.242,0.264,0.365,0.48,0.43c0.053,0.146,0.078,0.355,0.035,0.477c-0.318,0.016-0.26,0.316-0.266,0.571
		c-0.271,0.005-0.477,0.284-0.734,0.339c-0.086,0.02-0.182-0.012-0.277-0.012c-0.195,0-0.49,0.079-0.602-0.055
		c0.01-0.092,0.082-0.135,0.168-0.168c-0.078-0.171-0.227-0.246-0.277-0.459c-0.193,0.158-0.094,0.537-0.203,0.76
		c-0.063-0.002-0.117-0.017-0.189-0.006c-0.156,0.191-0.348,0.162-0.533,0.291c-0.256,0.178-0.301,0.594-0.646,0.701
		c-0.23,0.07-0.49,0.018-0.666,0.221c0.105,0.239,0.256,0.418,0.314,0.72c-0.123,0.491-0.832,0.29-1.275,0.328
		c-0.094,0.213-0.186,0.429-0.291,0.632c0.027,0.28,0.045,0.462,0.053,0.721c0.258-0.009,0.469,0.305,0.742,0.32
		c0.197,0.011,0.359-0.086,0.471-0.139c0.1-0.051,0.244-0.07,0.313-0.119c0.193-0.133,0.242-0.376,0.297-0.576
		c0.102-0.094,0.209-0.094,0.318-0.207c0.107-0.113,0.137-0.336,0.256-0.395c0.115-0.056,0.262-0.019,0.377-0.037
		c0.217-0.032,0.383-0.121,0.582-0.191c0.076,0.18,0.248,0.236,0.418,0.35c0.135,0.09,0.244,0.208,0.35,0.25
		c0.184,0.074,0.404,0.055,0.553,0.205c0.104,0.211,0.033,0.355,0.123,0.498c0.072-0.006,0.078-0.064,0.146-0.074
		c0.021-0.152-0.039-0.371,0.053-0.471c0.086-0.018,0.07,0.104,0.168,0.064c0.041-0.162-0.148-0.313-0.324-0.309
		c-0.156-0.197-0.412-0.256-0.643-0.352c-0.047-0.123-0.127-0.203-0.156-0.352c0.119,0.025,0.244-0.032,0.365,0
		c0.109,0.029,0.189,0.171,0.293,0.225c0.217,0.109,0.543,0.12,0.648,0.352c-0.02,0.08-0.078,0.127-0.076,0.225
		c0.061,0.209,0.344,0.211,0.451,0.344c0.125,0.15,0.125,0.381,0.285,0.528c0.127-0.062,0.145,0.006,0.248,0.018
		c0.061-0.091,0.146-0.095,0.264-0.092c-0.008-0.146-0.162-0.085-0.184-0.204c0.025-0.059,0.121,0.025,0.109-0.07
		c-0.135-0.102-0.205-0.293-0.277-0.477c0.072-0.334,0.633-0.119,0.795-0.383c-0.082,0.127-0.121,0.289-0.082,0.51
		c0.174,0.109,0.268,0.315,0.387,0.496c0.447-0.167,1.031-0.069,1.346-0.321c0.305,0.403,0.076,0.851-0.059,1.149
		c-0.057-0.013-0.113-0.025-0.178-0.027c-0.104,0.137-0.299,0.105-0.465,0.158c-0.109,0.031-0.189,0.129-0.291,0.148
		c-0.514,0.099-1.063-0.166-1.566-0.127c-0.086,0.07-0.195,0.121-0.27,0.197c-0.008,0.164-0.016,0.328-0.113,0.427
		c-0.158-0.12-0.303-0.06-0.52-0.12c-0.221-0.058-0.41-0.312-0.588-0.323c-0.266-0.019-0.422,0.146-0.586-0.075
		c-0.086-0.117-0.066-0.27-0.129-0.408c-0.068-0.154-0.195-0.248-0.271-0.424c-0.143,0.008-0.252,0.077-0.385,0.092
		c-0.252,0.029-0.514-0.031-0.789-0.027s-0.662,0.088-0.883,0.164c-0.139,0.048-0.254,0.18-0.373,0.18
		c-0.135,0-0.285-0.25-0.434-0.223c-0.127,0.025-0.211,0.307-0.326,0.386c-0.09,0.064-0.209,0.058-0.299,0.099
		c-0.107,0.047-0.164,0.125-0.275,0.146c-0.033,0.049,0.047,0.041,0.035,0.119c-0.092,0.193-0.172,0.416-0.336,0.566
		c-0.201,0.183-0.471,0.258-0.668,0.418c-0.287,0.23-0.494,0.615-0.531,1.021c-0.023,0.266-0.006,0.56-0.027,0.876
		c-0.271,0.364,0.15,0.706,0.1,1.161c0.201,0.258,0.445,0.319,0.604,0.555c0.088,0.137,0.084,0.313,0.174,0.49
		c0.076,0.146,0.289,0.297,0.426,0.402c0.154,0.119,0.303,0.281,0.467,0.341c0.346,0.126,0.76,0.038,1.158,0.062
		c0.266,0.018,0.473,0.108,0.773,0.05c0.186-0.038,0.4-0.167,0.6-0.178c0.152-0.01,0.275,0.114,0.451,0.113
		c0.188,0.232,0.523,0.259,0.934,0.185c0.115,0.072,0.229,0.145,0.316,0.256c-0.115,0.213-0.221,0.494-0.184,0.775
		c0.527,0.385,0.973,0.883,1.463,1.318c-0.066,0.127-0.121,0.27-0.066,0.49c-0.068,0.088-0.188,0.115-0.211,0.227
		c-0.037,0.163,0.072,0.398-0.004,0.571c0.158,0.216,0.496,0.278,0.648,0.51c0.09,0.139,0.115,0.253,0.209,0.345
		c0.199,0.199,0.543,0.333,0.811,0.435c0.027,0.029,0.029,0.097,0.055,0.134c0.559,0.123,1.191-0.146,1.643-0.31
		c0.523-0.192,1.033-0.454,1.236-0.842c0.018-0.033-0.029-0.084-0.004-0.14c0.096-0.148,0.221-0.275,0.361-0.392
		c-0.051-0.198,0.023-0.304,0.057-0.437c0.363-0.355,0.873-0.596,1.102-1.051c-0.154-0.524-0.178-1.091-0.387-1.457
		c0.164-0.203,0.229-0.482,0.42-0.703c0.084-0.1,0.225-0.156,0.309-0.26c0.195-0.233,0.357-0.68,0.625-0.982
		c0.15-0.168,0.359-0.387,0.42-0.577c0.041-0.126,0.018-0.291,0.041-0.433c0.021-0.119,0.072-0.283,0.113-0.428
		c0.066-0.24,0.223-0.406,0.063-0.632c-0.1-0.001-0.201-0.003-0.311,0.009c-0.307,0.154-0.82,0.84-1.201,0.603l-0.025-0.173
		c0.293-0.139,0.566-0.427,0.777-0.632c0.221-0.211,0.482-0.381,0.633-0.571c0.119-0.154,0.145-0.376,0.293-0.489
		c0.242-0.185,0.533-0.239,0.631-0.573c-0.035-0.432,0.049-0.769,0.115-1.121c-0.127-0.082-0.176-0.226-0.309-0.311
		c-0.123-0.084-0.361-0.053-0.402-0.263c0.213-0.149,0.48-0.183,0.764-0.146c0.152-0.267,0.338-0.507,0.652-0.649
		c0.004,0.073,0.055,0.08,0.086,0.113c0.395-0.04,0.572,0.217,0.865,0.32c0.08-0.039,0.072-0.146,0.146-0.182
		c0.283,0.133,0.359,0.553,0.469,0.928c0.068,0.08,0.17,0.119,0.236,0.198c0.016,0.104,0.055,0.175,0.061,0.294
		c0.123,0.102,0.268,0.176,0.332,0.359c0.098,0.018,0.219-0.01,0.24,0.11c0.09-0.427,0.189-0.839,0.105-1.317
		c-0.031-0.166-0.121-0.326-0.143-0.494c-0.043-0.321,0.109-0.639,0.182-1.026c0.023-0.13-0.035-0.294-0.025-0.423
		c0.006-0.116,0.055-0.219,0.055-0.328c0.002-0.316,0.045-0.474,0.105-0.711c0.361-0.039,0.445,0.295,0.631,0.496
		c0.271-0.393,0.342,0.398,0.432,0.827c0.043,0.192,0.102,0.337,0.178,0.437c-0.01-0.14-0.018-0.28-0.031-0.421
		c-0.002,0-0.002-0.001-0.004-0.001C27.329,14.523,27.237,14.128,27.296,13.881z M20.204,13.617
		c-0.066,0.004-0.078-0.063-0.104-0.111C20.159,13.511,20.2,13.537,20.204,13.617z M20.046,13.496
		c0.033-0.014,0.066,0.073,0.029,0.086C20.017,13.607,20.036,13.51,20.046,13.496z M17.044,14.629
		C16.95,14.65,16.88,14.72,16.8,14.754c-0.322,0.139-0.666,0.232-0.85,0.392c-0.055-0.05,0.035-0.116,0.045-0.168
		c-0.057-0.288-0.041-0.601-0.102-0.839c0.078-0.082,0.123-0.215,0.223-0.248c0.203-0.066,0.354,0.193,0.551,0.188
		c0.055,0.069-0.102,0.091-0.059,0.204c0.084,0.047,0.227,0.014,0.322,0.042c0.105-0.091,0.178-0.203,0.268-0.307
		c-0.072-0.001-0.295,0.105-0.396,0.042c0.068-0.27,0.264-0.443,0.451-0.62c0.215,0.089,0.059,0.312,0.033,0.476
		c0.096,0.078,0.256,0.004,0.391,0.032c0.131,0.03,0.479,0.226,0.494,0.303c0.025,0.109-0.154,0.215-0.275,0.255
		C17.644,14.586,17.231,14.59,17.044,14.629z M18.333,23.83c-0.037-0.081-0.098-0.092-0.082-0.202
		c0.035-0.04,0.135-0.031,0.203-0.048c0.035-0.002-0.002-0.063,0.004-0.089c0.08-0.022,0.086-0.024,0.17-0.024
		C18.63,23.664,18.562,23.807,18.333,23.83z M19.778,20.02c-0.084-0.076-0.178-0.146-0.242-0.248
		c-0.391-0.061-0.861-0.393-0.691-0.897c-0.037-0.079-0.113-0.107-0.178-0.151c-0.33,0.112-0.471-0.149-0.627-0.354
		c-0.137-0.183-0.357-0.364-0.363-0.481c-0.021-0.307,0.441-0.08,0.607,0c0.297,0.785,0.986,1.031,1.537,1.469
		c0.084,0.239,0.201,0.436,0.289,0.67C20.003,20.02,19.897,20.01,19.778,20.02z M19.659,14.194c0.008-0.079,0.043-0.134,0.059-0.203
		c-0.268-0.306-0.723-0.482-0.703-1.005c0.082-0.115,0.152-0.242,0.246-0.355c0.059-0.006,0.082,0.039,0.143,0.032
		c0.023-0.038,0.051-0.072,0.051-0.13c0.043-0.021,0.039,0.028,0.072,0.023c-0.053,0.172-0.059,0.379-0.189,0.49
		c0.143,0.287,0.35,0.486,0.641,0.568c0.168,0.224,0.346,0.43,0.498,0.674c0.004,0.073-0.049,0.104-0.043,0.185
		c-0.107,0.047-0.26,0.06-0.367,0.107C19.923,14.465,19.749,14.387,19.659,14.194z M21.794,16.876
		c-0.139,0.042-0.26,0.104-0.396,0.146c-0.43-0.068-0.629-0.447-1.008-0.582c-0.01-0.055,0.008-0.086,0.014-0.127
		c0.094-0.037,0.191-0.01,0.191-0.135c0.227,0.176,0.43,0.386,0.729,0.463c0.145-0.074,0.318-0.127,0.498-0.179
		C21.833,16.626,21.841,16.736,21.794,16.876z M4.995,24.189c-0.119-0.469-0.328-0.702-0.584-1.019
		c-0.17-0.214-0.324-0.472-0.492-0.641c-0.141-0.142-0.359-0.22-0.49-0.374c-0.191-0.232-0.311-0.5-0.477-0.75
		c-0.057-0.091-0.15-0.158-0.189-0.24c-0.115-0.24-0.168-0.523-0.271-0.779c-0.094-0.233-0.205-0.486-0.328-0.699
		c-0.07-0.122-0.268-0.287-0.309-0.438c-0.02-0.074-0.008-0.174-0.018-0.247c-0.115-0.698-0.314-1.479-0.502-2.01
		c-0.006,0.067-0.01,0.135-0.01,0.202c0.02,0.193,0.045,0.386,0.072,0.58c0.438,2.998,1.814,5.621,3.775,7.605
		c0.039,0.011,0.078,0.016,0.121,0.012c-0.141-0.141-0.215-0.432-0.324-0.664C4.849,24.462,4.733,24.315,4.995,24.189z M1.38,14.563
		c-0.049,0.277-0.105,0.631-0.035,0.949C1.378,15.223,1.411,14.848,1.38,14.563z M1.333,14.289
		c-0.008,0.088-0.018,0.174-0.025,0.262c0,0.002,0.002,0.004,0.004,0.004C1.315,14.482,1.345,14.375,1.333,14.289z M1.368,15.546
		c-0.018,0.101-0.043,0.276,0.023,0.388C1.489,15.887,1.464,15.602,1.368,15.546z M9.276,9.848c-0.197-0.047-0.455,0.027-0.65-0.047
		C8.604,9.896,8.548,9.97,8.544,10.08c0.096,0.181,0.24,0.299,0.434,0.346c0.17-0.142,0.398-0.232,0.633-0.324
		C9.517,10.013,9.423,9.881,9.276,9.848z M16.546,8.003c0.115,0.04,0.273,0.017,0.434-0.01c-0.01-0.23-0.238-0.157-0.305-0.312
		c0.014-0.141,0.031-0.306-0.047-0.438c0.092-0.12,0.15-0.265,0.16-0.451c0.061-0.011,0.094-0.04,0.145-0.057
		c-0.082-0.24-0.41,0.036-0.52,0.111c0.01,0.077,0.018,0.157,0.047,0.208C16.179,7.209,16.304,7.85,16.546,8.003z M15.694,16.607
		c0.02-0.08-0.123-0.104-0.193-0.132c-0.025,0.038,0.006,0.116,0.01,0.177C15.616,16.637,15.593,16.56,15.694,16.607z M13.569,16.24
		c-0.117-0.17-0.311-0.152-0.453-0.005c-0.053-0.017-0.076-0.075-0.148-0.067c-0.012,0.059-0.012,0.127-0.025,0.182
		c0.193,0.026,0.34,0.115,0.498,0.194C13.45,16.418,13.509,16.328,13.569,16.24z M12.089,15.762
		c0.063,0.158,0.146,0.287,0.279,0.352c-0.059-0.235,0.145-0.289,0.012-0.5C12.247,15.525,12.142,15.656,12.089,15.762z
		 M12.315,15.282c-0.039-0.022-0.045-0.089-0.115-0.071c0.008,0.075-0.021,0.159,0.059,0.17
		C12.271,15.344,12.331,15.342,12.315,15.282z M17.515,4.852c-0.109,0.053-0.244-0.035-0.283,0.095
		c0.084,0.034,0.195,0.107,0.289,0.065C17.515,4.926,17.468,4.901,17.515,4.852z M26.132,17.133
		c-0.047,0.342,0.105,0.516,0.193,0.738c0.162-0.174,0.051-0.716-0.109-0.873C26.222,17.069,26.165,17.09,26.132,17.133z
		 M9.413,3.754C9.442,3.871,9.337,3.89,9.306,3.965C9.421,3.928,9.55,3.9,9.638,3.845c-0.021-0.071-0.01-0.119,0.01-0.161
		C9.544,3.654,9.507,3.73,9.413,3.754z M16.808,5.132c0.125,0.033,0.199,0.146,0.338,0.165c0.057-0.082,0.205-0.09,0.25-0.178
		C17.296,4.964,16.839,4.887,16.808,5.132z M16.979,3.326c0.057,0.133,0.268,0.25,0.402,0.138
		C17.222,3.464,17.108,3.227,16.979,3.326z M7.546,5.147c0.25-0.093,0.461-0.218,0.604-0.392C7.854,4.666,7.634,4.936,7.546,5.147z
		 M8.192,4.804c0.221-0.001,0.26-0.145,0.385-0.216C8.405,4.473,8.304,4.726,8.192,4.804z M9.427,13.139
		C9.671,13,10.192,12.41,9.729,12.24c-0.186,0.229-0.402,0.436-0.5,0.731C9.274,13.057,9.356,13.088,9.427,13.139z M7.907,5.113
		C7.854,5.098,7.923,5.042,7.876,5.027C7.769,5.095,7.599,5.115,7.579,5.25C7.747,5.255,7.821,5.2,7.907,5.113z M13.239,7.525
		c-0.104-0.057-0.203-0.113-0.318-0.15c-0.117,0.057-0.264,0.088-0.361,0.158c-0.023,0.225,0.242,0.311,0.352,0.483
		c0.225-0.082,0.414-0.188,0.404-0.45c0.064,0.022,0.141,0.027,0.215,0.041c0.043-0.104,0.105-0.186,0.146-0.289
		C13.47,7.299,13.198,7.246,13.239,7.525z M11.005,7.137c-0.18,0.046-0.246-0.25-0.465-0.217c-0.02-0.127,0.041-0.195,0.002-0.338
		c-0.291-0.013-0.498-0.141-0.643-0.352C9.81,6.229,9.778,6.271,9.696,6.277c-0.051-0.029-0.008-0.088-0.064-0.08
		C9.438,6.232,9.407,6.049,9.272,6C9.165,6.037,9.054,6.071,8.958,6.116C8.944,6.053,8.874,6.064,8.886,5.967
		C8.724,6.01,8.663,5.906,8.515,5.934c0.025-0.068-0.02-0.097-0.07-0.115c-0.316,0.104-0.48,0.325-0.514,0.645
		c0.01,0.055,0.094,0.01,0.098,0.076C7.931,6.903,7.657,7.134,7.46,7.423C7.458,7.497,7.501,7.508,7.501,7.577
		C7.478,7.589,7.46,7.608,7.437,7.623c-0.092,0.041-0.072-0.07-0.16-0.031c-0.152,0.065,0,0.361-0.186,0.4
		C7.048,7.988,7.009,7.979,6.952,7.996C6.659,8.158,6.474,8.404,6.302,8.66c0.002,0.406-0.289,0.587-0.217,1.047
		c0.543,0.466,0.643-0.463,1.07-0.547C7.22,9.193,7.288,9.217,7.345,9.257c0.213,0.015,0.35-0.102,0.502-0.145
		C8.196,9.012,8.438,9.2,8.782,9.207c0.148-0.059,0.242-0.2,0.357-0.301c0.039-0.038,0.092-0.049,0.125-0.09
		c0.041-0.051,0.039-0.133,0.078-0.189C9.45,8.459,9.667,8.391,9.79,8.242c0.135-0.167,0.168-0.465,0.438-0.477
		c0-0.045,0.012-0.082,0.037-0.111c0.008-0.065-0.08-0.003-0.08-0.059c0.219-0.144,0.506-0.233,0.787-0.328
		C10.962,7.217,11.058,7.168,11.005,7.137z M10.192,13.616c0.199-0.231,0.693-0.237,0.828-0.514c0.014-0.231-0.25-0.349-0.318-0.523
		c-0.117-0.299,0.008-0.603-0.117-0.927c-0.236-0.214-0.387,0.146-0.494,0.305c0.082,0.064,0.189,0.099,0.268,0.174
		c0.002,0.543-0.256,0.889-0.42,1.309C9.997,13.535,10.116,13.544,10.192,13.616z M8.521,4.418c0.15-0.113,0.309-0.041,0.385-0.201
		c0-0.027-0.047-0.002-0.051-0.027C8.97,4.098,9.11,4.025,9.231,3.939C8.921,3.98,8.694,4.221,8.521,4.418z M8.815,4.643
		c0.086-0.061,0.271-0.119,0.285-0.184C9.067,4.406,8.665,4.514,8.815,4.643z M4.979,8.568C4.942,8.2,5.366,8.017,5.519,7.707
		c0.01-0.023,0.02-0.043,0.033-0.066c0.047-0.124,0.072-0.299-0.023-0.453C5.372,7.32,5.222,7.426,5.028,7.58
		C4.905,7.68,4.72,7.984,4.606,8.035C4.521,8.072,4.425,8.043,4.353,8.072c-0.18,0.072-0.234,0.275-0.418,0.363
		C3.997,8.143,4.304,8.047,4.474,7.84C4.56,7.739,4.616,7.561,4.71,7.415c0.127-0.206,0.275-0.353,0.297-0.578
		c0.291-0.264,0.494-0.642,0.957-0.728c-0.049,0.095,0.07,0.114,0.125,0.143c-0.178,0.07-0.285,0.195-0.35,0.354
		c0.027,0.006,0.084-0.034,0.086,0.004C5.798,6.67,5.751,6.717,5.731,6.783C5.985,6.621,6.069,6.328,6.36,6.195
		C6.374,6.28,6.347,6.301,6.397,6.348C6.608,6.387,6.673,6.127,6.88,6.205c-0.277,0.252-0.209,0.77-0.766,0.809
		C6.03,6.994,6.021,6.875,5.95,6.842C5.917,6.879,5.823,6.871,5.802,6.916c0.057,0.32-0.146,0.513-0.25,0.725
		c-0.01,0.017-0.014,0.03-0.02,0.045C5.528,7.693,5.526,7.699,5.519,7.707C5.487,7.793,5.476,7.885,5.507,7.992
		c0.422,0.073,0.408-0.381,0.67-0.525c-0.004,0.146-0.1,0.288-0.012,0.377c0.074-0.055,0.164-0.101,0.256-0.145
		c0.123-0.125,0.121-0.302,0.195-0.456c0.1-0.218,0.348-0.355,0.436-0.58C7.067,6.593,6.978,6.67,6.993,6.6
		c0.139-0.161,0.291-0.313,0.453-0.458c0.029-0.194,0.146-0.323,0.209-0.493C7.595,5.631,7.491,5.694,7.448,5.678
		c0.107-0.068,0.223-0.131,0.221-0.279C7.228,5.473,6.96,5.682,6.854,6.015c-0.08,0.006-0.139-0.019-0.184-0.063
		C6.878,5.66,7.196,5.453,7.487,5.228C7.202,5.244,7.083,5.544,6.849,5.498c0.119-0.104,0.377-0.104,0.395-0.289
		C7.241,5.143,7.157,5.184,7.13,5.154c0.186-0.193,0.316-0.43,0.561-0.58c-0.074,0.15-0.279,0.201-0.291,0.397
		C7.728,4.76,8.146,4.613,8.444,4.375c0.211-0.366,0.775-0.46,1.092-0.746C9.181,3.636,9.024,3.797,8.851,3.941
		C8.88,3.94,8.933,3.912,8.923,3.967c-0.197,0.01-0.41,0.166-0.594,0.192C8.327,4.16,8.327,4.16,8.327,4.16l-0.02,0.004
		C8.315,4.162,8.323,4.16,8.329,4.159c0.008-0.003,0.014-0.005,0.01-0.018C8.685,3.97,8.921,3.718,9.341,3.604
		c0.828-0.542,2.031-0.793,3.275-1.014c-0.063,0.007-0.123,0.014-0.186,0.023c-1.75,0.255-3.365,0.853-4.795,1.718
		C7.524,4.408,7.413,4.484,7.304,4.561C7.04,4.734,6.778,4.912,6.524,5.087C5.874,5.575,5.28,6.122,4.739,6.719
		C4.653,6.825,4.565,6.932,4.478,7.037C4.313,7.245,4.13,7.447,3.958,7.66C3.437,8.356,2.979,9.104,2.597,9.893
		c-0.113,0.28-0.227,0.56-0.361,0.817c-0.037,0.092-0.074,0.185-0.109,0.278c-0.045,0.199-0.129,0.382-0.199,0.564
		c-0.029,0.093-0.059,0.185-0.088,0.279c-0.01,0.039-0.018,0.079-0.02,0.118c0.055-0.163,0.111-0.326,0.211-0.458
		c0.002,0.047,0.033,0.056,0.074,0.044c0.266-0.177,0.324-0.508,0.521-0.735c0.016,0.107,0.057,0.188,0.105,0.251
		c0.002-0.228,0.326-0.284,0.498-0.179C3.2,10.97,3.108,11.02,3.11,11.139c0.127-0.023,0.18,0.061,0.258,0.105
		c0.064-0.35,0.178-0.66,0.373-0.91c-0.002-0.158-0.049-0.347,0.061-0.419c0.133,0.114,0.129,0.412,0.252,0.534
		c0.045,0.094,0.111-0.085,0.17-0.025c-0.092,0.188-0.313,0.279-0.42,0.453c0.01,0.316-0.037,0.678,0.221,0.805
		c0.1-0.237,0.268-0.477,0.199-0.793c0.086-0.283,0.205-0.536,0.416-0.722c0.025-0.206,0.102-0.337,0.152-0.52
		c0.037-0.139,0.068-0.282,0.111-0.41c0.092-0.261,0.273-0.456,0.334-0.688C5.204,8.527,5.042,8.609,4.979,8.568z M2.913,10.028
		c-0.037-0.101,0.02-0.13,0.041-0.185c0.066,0.008-0.061,0.117,0.033,0.102C2.97,9.979,2.962,10.02,2.913,10.028z M3.077,9.486
		C3.101,9.328,3.216,9.24,3.286,9.119C3.286,9.232,3.185,9.405,3.077,9.486z M3.083,9.165c0.025-0.145,0.211-0.351,0.338-0.423
		C3.401,8.891,3.194,9.034,3.083,9.165z M3.565,8.65c0.025-0.164,0.09-0.429,0.191-0.58C3.884,8.291,3.638,8.477,3.565,8.65z
		 M7.638,5.775c0.205-0.047,0.207-0.246,0.391-0.307C8.022,5.537,7.919,5.529,7.946,5.624c0.152,0.114,0.527-0.17,0.559,0.132
		c0.258,0.042,0.527-0.058,0.809-0.063C9.243,5.586,9.353,5.578,9.356,5.49C9.339,5.455,9.255,5.516,9.263,5.449
		C9.294,5.346,9.339,5.25,9.356,5.133C9.323,5.121,9.271,5.141,9.249,5.115c0.006-0.07,0.068-0.094,0.063-0.171
		C9.239,4.844,9.116,4.82,9.022,4.755c-0.199,0.069-0.357,0.173-0.48,0.302c0.041,0.166,0.27-0.006,0.352,0.02
		C8.784,5.087,8.888,5.163,8.923,5.161C8.78,5.237,8.604,5.15,8.446,5.229C8.339,5.043,8.087,5.285,8.044,5.324
		c0.033-0.251,0.35-0.291,0.43-0.508C8.405,4.793,8.337,4.827,8.327,4.891C7.997,5.046,7.673,5.289,7.69,5.66
		C7.677,5.703,7.642,5.729,7.638,5.775z"/>
</g>
<g id="Capa_2">
	<rect x="60" y="9.521" fill="#FFFFFF" width="1.666" height="12.473"/>
	<polygon fill="#FFFFFF" points="63.5,9.521 72.771,9.521 72.605,10.358 68.895,10.499 68.895,21.993 67.229,21.993 67.208,10.499 
		63.375,10.437 	"/>
	<path fill="#FFFFFF" d="M78.442,9.208L76.989,9.6l-4.906,12.394h1.188l1.844-4.879h4.563l1.656,4.879h1.75L78.442,9.208z
		 M75.287,16.552l2.172-5.781l2,5.781H75.287z"/>
	<polygon fill="#FFFFFF" points="85.48,9.437 86.522,9.437 91.542,19.687 96.375,9.437 97.375,9.437 98.772,21.993 97.125,21.993 
		96.068,12.427 91.709,21.993 90.917,21.993 86.147,12.479 85.292,21.993 84.209,21.993 	"/>
	<path fill="#FFFFFF" d="M34.581,3.573v24.586c0,0,19.308,3.787,21.188-11.43C56.533,10.54,54.393-0.302,34.581,3.573z
		 M52.583,16.505c-1.174,13.662-14.746,9.902-14.746,9.902V4.985C51.328,2.532,53.009,11.538,52.583,16.505z"/>
</g>
</svg>
