<?xml version="1.0" encoding="utf-8"?>
<!-- Generator: Adobe Illustrator 17.0.0, SVG Export Plug-In . SVG Version: 6.00 Build 0)  -->
<!DOCTYPE svg PUBLIC "-//W3C//DTD SVG 1.1//EN" "http://www.w3.org/Graphics/SVG/1.1/DTD/svg11.dtd">
<svg version="1.1" id="Capa_1" xmlns="http://www.w3.org/2000/svg" xmlns:xlink="http://www.w3.org/1999/xlink" x="0px" y="0px"
	 width="98.435px" height="95.993px" viewBox="81.32 -8.497 98.435 95.993" enable-background="new 81.32 -8.497 98.435 95.993"
	 xml:space="preserve">
<g>
	<circle fill="#353434" cx="131.528" cy="39.569" r="46.343"/>
	<g>
		<g>
			<defs>
				<circle id="SVGID_1_" cx="130.256" cy="38.569" r="45.66"/>
			</defs>
			<clipPath id="SVGID_2_">
				<use xlink:href="#SVGID_1_"  overflow="visible"/>
			</clipPath>
			<g clip-path="url(#SVGID_2_)">
				<path fill="#D6D4D4" d="M181.744,35.628c0-27.295-22.125-49.422-49.421-49.422c-27.295,0-49.421,22.127-49.421,49.422
					c0,17.711,9.32,33.236,23.318,41.963c5.328-2.293,11.81-5.342,13.107-7.109l0.621-11.789c0,0-4.136-2.275-4.963-10.959
					c0,0-2.481-0.621-3.517-3.311c0,0-1.846-5.956,1.625-6.199c-0.293-2.332-0.576-6.592-0.212-13.555
					c0.231-4.465,4.346-8.297,11.102-9.992c10.56-2.651,9.441,1.172,9.441,1.172c1.883-2.69,13.676,0.285,14.83,8.661
					c0.746,5.43,0.065,9.574-0.809,13.72c3.429,0.276,1.597,6.193,1.597,6.193c-1.035,2.689-3.517,3.311-3.517,3.311
					c-0.827,8.684-4.963,10.959-4.963,10.959l0.621,11.789c1.503,2.047,9.955,5.813,15.519,8.131
					C171.654,70.114,181.744,54.056,181.744,35.628z"/>
				<path fill="#7C7979" d="M141.185,70.481l-0.621-11.789c0,0,4.136-2.275,4.963-10.959c0,0,2.481-0.621,3.517-3.311
					c0,0,1.832-5.917-1.597-6.193c-0.161,0.768-0.327,1.535-0.494,2.311c0,0-2.946-16.955-12.559-12.078
					c0,0-10.865-9.109-18.406,1.688c-2.275,3.257-2.482,10.391-2.482,10.391s-0.208-0.699-0.411-2.316
					c-3.471,0.243-1.625,6.199-1.625,6.199c1.035,2.689,3.517,3.311,3.517,3.311c0.827,8.684,4.963,10.959,4.963,10.959
					l-0.621,11.789c-1.298,1.768-7.779,4.816-13.107,7.109c-4.008,1.725-7.364,3.023-7.364,3.023l25.643,23.158l5.758-3.563
					l5.758,3.563l25.64-23.159c0,0-2.097-0.811-4.953-2.002C151.14,76.294,142.688,72.528,141.185,70.481z"/>
				<path fill="#474646" d="M115.988,30.149c7.541-10.797,18.406-1.688,18.406-1.688c9.612-4.877,12.559,12.078,12.559,12.078
					c0.167-0.775,0.333-1.543,0.494-2.311c0.874-4.146,1.555-8.29,0.809-13.72c-1.154-8.376-12.947-11.352-14.83-8.661
					c0,0,1.118-3.823-9.441-1.172c-6.756,1.695-10.87,5.527-11.102,9.992c-0.364,6.963-0.081,11.223,0.212,13.555
					c0.203,1.617,0.411,2.316,0.411,2.316S113.712,33.406,115.988,30.149z"/>
			</g>
		</g>
	</g>
</g>
</svg>
