<?xml version="1.0" encoding="utf-8"?>
<!-- Generator: Adobe Illustrator 16.0.0, SVG Export Plug-In . SVG Version: 6.00 Build 0)  -->
<!DOCTYPE svg PUBLIC "-//W3C//DTD SVG 1.1//EN" "http://www.w3.org/Graphics/SVG/1.1/DTD/svg11.dtd">
<svg version="1.1" id="Capa_1" xmlns="http://www.w3.org/2000/svg" xmlns:xlink="http://www.w3.org/1999/xlink" x="0px" y="0px"
	 width="32px" height="32px" viewBox="0 0 32 32" enable-background="new 0 0 32 32" xml:space="preserve">
<g>
	<path fill="#ECEBEA" d="M13.107,12.739c1.421-0.913,2.367-2.506,2.367-4.323c0-2.837-2.303-5.137-5.14-5.137
		c-2.839,0-5.141,2.3-5.141,5.137c0,1.817,0.942,3.41,2.368,4.323c-3.352,0.301-5.987,3.127-5.987,6.556v5.335l0.014,0.083
		l0.364,0.111c3.808,0.883,5.675,1.114,8.15,1.114c4.838,0,8.436-1.049,8.612-1.137l0.344-0.172h0.034v-5.335
		C19.094,15.866,16.456,13.041,13.107,12.739z"/>
	<path fill="#ECEBEA" d="M23.273,14.024c-3.949,0-7.151,3.201-7.151,7.148c0,3.951,3.202,7.152,7.151,7.152
		c3.948,0,7.15-3.201,7.15-7.152C30.424,17.226,27.222,14.024,23.273,14.024z M27.784,22.194h-3.492v3.492h-2.038v-3.492H18.76
		v-2.038h3.494v-3.494h2.038v3.494h3.492V22.194z"/>
</g>
</svg>
