<?xml version="1.0" encoding="utf-8"?>
<!-- Generator: Adobe Illustrator 17.0.0, SVG Export Plug-In . SVG Version: 6.00 Build 0)  -->
<!DOCTYPE svg PUBLIC "-//W3C//DTD SVG 1.1//EN" "http://www.w3.org/Graphics/SVG/1.1/DTD/svg11.dtd">
<svg version="1.1" id="Capa_1" xmlns="http://www.w3.org/2000/svg" xmlns:xlink="http://www.w3.org/1999/xlink" x="0px" y="0px"
	 width="32px" height="32px" viewBox="0 0 32 32" enable-background="new 0 0 32 32" xml:space="preserve">
<g>
	<path opacity="0.2" fill="#505051" d="M24.244,14.323c1.435-0.925,2.391-2.532,2.391-4.367c0-2.868-2.324-5.191-5.191-5.191
		c-2.865,0-5.189,2.323-5.189,5.191c0,1.835,0.953,3.442,2.391,4.367c-3.385,0.303-6.049,3.153-6.049,6.617v5.387l0.014,0.086
		l0.371,0.115c3.848,0.89,5.728,1.12,8.231,1.12c4.883,0,8.521-1.057,8.697-1.144l0.346-0.177h0.037V20.94
		C30.291,17.478,27.629,14.627,24.244,14.323z"/>
	<path fill="#EEEDEC" d="M24.244,13.644c1.435-0.924,2.391-2.531,2.391-4.366c0-2.866-2.324-5.192-5.191-5.192
		c-2.865,0-5.189,2.325-5.189,5.192c0,1.835,0.953,3.442,2.391,4.366c-3.385,0.303-6.049,3.156-6.049,6.618v5.387l0.014,0.086
		l0.371,0.116c3.848,0.888,5.728,1.121,8.231,1.121c4.883,0,8.521-1.059,8.697-1.146l0.346-0.178h0.037v-5.387
		C30.291,16.8,27.629,13.947,24.244,13.644z"/>
	<path opacity="0.2" fill="#505051" d="M11.629,16.574c1.221-0.785,2.033-2.154,2.033-3.715c0-2.44-1.978-4.417-4.416-4.417
		c-2.441,0-4.418,1.977-4.418,4.417c0,1.561,0.811,2.93,2.035,3.715c-2.881,0.259-5.146,2.685-5.146,5.632v4.583l0.012,0.071
		l0.316,0.1c3.272,0.757,4.873,0.954,7.002,0.954c4.156,0,7.25-0.9,7.4-0.976l0.295-0.149h0.031v-4.583
		C16.774,19.26,14.508,16.833,11.629,16.574z"/>
	<path fill="#EEEDEC" d="M11.629,15.996c1.221-0.785,2.033-2.154,2.033-3.715c0-2.44-1.978-4.416-4.416-4.416
		c-2.441,0-4.418,1.976-4.418,4.416c0,1.561,0.811,2.93,2.035,3.715c-2.881,0.258-5.146,2.685-5.146,5.632v4.584l0.012,0.072
		l0.316,0.098c3.272,0.757,4.873,0.955,7.002,0.955c4.156,0,7.25-0.901,7.4-0.976l0.295-0.149h0.031v-4.584
		C16.774,18.681,14.508,16.256,11.629,15.996z"/>
</g>
</svg>
