<?xml version="1.0" encoding="utf-8"?>
<!-- Generator: Adobe Illustrator 16.0.0, SVG Export Plug-In . SVG Version: 6.00 Build 0)  -->
<!DOCTYPE svg PUBLIC "-//W3C//DTD SVG 1.1//EN" "http://www.w3.org/Graphics/SVG/1.1/DTD/svg11.dtd">
<svg version="1.1" id="Capa_1" xmlns="http://www.w3.org/2000/svg" xmlns:xlink="http://www.w3.org/1999/xlink" x="0px" y="0px"
	 width="48px" height="51.585px" viewBox="0 0 48 51.585" enable-background="new 0 0 48 51.585" xml:space="preserve">
<path opacity="0.8" fill="#DEA03C" d="M35.823,0.558H12.177c-6.358,0-11.513,4.914-11.513,10.977v28.518
	c0,6.062,5.154,10.976,11.513,10.976h23.646c6.359,0,11.513-4.914,11.513-10.976V11.534C47.336,5.472,42.183,0.558,35.823,0.558z
	 M15.808,44.736l-2.212-1.861l19.252-16.161L13.615,10.537l2.216-1.858l21.444,18.038L15.808,44.736z"/>
<polygon fill="#FFFFFF" points="13.615,10.537 32.848,26.714 13.596,42.875 15.808,44.736 37.275,26.717 15.831,8.679 "/>
<polygon fill="#FFFFFF" points="13.615,10.543 32.848,26.72 13.596,42.881 15.808,44.742 37.275,26.723 15.831,8.685 "/>
</svg>
