<?xml version="1.0" encoding="utf-8"?>
<!-- Generator: Adobe Illustrator 17.0.0, SVG Export Plug-In . SVG Version: 6.00 Build 0)  -->
<!DOCTYPE svg PUBLIC "-//W3C//DTD SVG 1.1//EN" "http://www.w3.org/Graphics/SVG/1.1/DTD/svg11.dtd">
<svg version="1.1" id="Capa_1" xmlns="http://www.w3.org/2000/svg" xmlns:xlink="http://www.w3.org/1999/xlink" x="0px" y="0px"
	 width="32px" height="32px" viewBox="0 0 32 32" enable-background="new 0 0 32 32" xml:space="preserve">
<g opacity="0.7">
	<g opacity="0.2">
		<polygon fill="#505051" points="31.117,15.085 31.117,13.01 30.047,13.01 30.047,12.633 31.668,12.633 31.668,15.523 
			30.047,15.523 30.047,15.085 		"/>
		<polygon fill="#505051" points="0.872,15.085 0.872,13.01 1.941,13.01 1.941,12.633 0.321,12.633 0.321,15.523 1.941,15.523 
			1.941,15.085 		"/>
		<path fill="#505051" d="M29.131,6.65H10.685V5.98c0-0.08-0.066-0.144-0.145-0.144H9.677c-0.079,0-0.145,0.064-0.145,0.144V6.65
			H9.148V5.98c0-0.08-0.063-0.144-0.145-0.144H4.398c-0.08,0-0.145,0.064-0.145,0.144V6.65H2.878c-0.787,0-1.424,0.579-1.424,1.292
			v4.591h29.101V7.942C30.555,7.229,29.918,6.65,29.131,6.65z M29.049,10.262c0,0.476-0.387,0.861-0.865,0.861h-2.592
			c-0.477,0-0.863-0.386-0.863-0.861v-1.34c0-0.476,0.387-0.861,0.863-0.861h2.592c0.479,0,0.865,0.385,0.865,0.861V10.262z"/>
		<circle fill="#505051" cx="23.285" cy="9.616" r="0.599"/>
		<path fill="#505051" d="M28.205,8.061h-2.59c-0.479,0-0.865,0.385-0.865,0.861v1.34c0,0.476,0.387,0.861,0.865,0.861h2.59
			c0.479,0,0.865-0.386,0.865-0.861v-1.34C29.07,8.446,28.684,8.061,28.205,8.061z"/>
		<path fill="#505051" d="M29.131,6.65H2.878c-0.787,0-1.424,0.579-1.424,1.292v18.367c0,0.713,0.637,1.291,1.424,1.291h26.253
			c0.787,0,1.424-0.578,1.424-1.291V7.942C30.555,7.229,29.918,6.65,29.131,6.65z M16.016,23.273c-2.714,0-4.922-2.201-4.922-4.904
			c0-2.705,2.208-4.906,4.922-4.906c2.714,0,4.921,2.201,4.921,4.906C20.937,21.072,18.729,23.273,16.016,23.273z M29.07,10.262
			c0,0.476-0.387,0.861-0.865,0.861h-2.59c-0.479,0-0.865-0.386-0.865-0.861v-1.34c0-0.476,0.387-0.861,0.865-0.861h2.59
			c0.479,0,0.865,0.385,0.865,0.861V10.262z"/>
	</g>
	<g>
		<polygon fill="#EEEDEC" points="31.127,14.349 31.127,12.273 30.057,12.273 30.057,11.896 31.678,11.896 31.678,14.785 
			30.057,14.785 30.057,14.349 		"/>
		<polygon fill="#EEEDEC" points="0.883,14.349 0.883,12.273 1.951,12.273 1.951,11.896 0.332,11.896 0.332,14.785 1.951,14.785 
			1.951,14.349 		"/>
		<path fill="#EEEDEC" d="M29.143,5.913H10.694V5.244c0-0.08-0.065-0.144-0.144-0.144H9.686c-0.079,0-0.144,0.064-0.144,0.144v0.669
			H9.157V5.244c0-0.08-0.063-0.144-0.143-0.144H4.407c-0.079,0-0.144,0.064-0.144,0.144v0.669H2.888
			c-0.786,0-1.424,0.578-1.424,1.292v4.59h29.103v-4.59C30.566,6.491,29.928,5.913,29.143,5.913z M29.059,9.524
			c0,0.476-0.387,0.861-0.865,0.861h-2.59c-0.479,0-0.865-0.386-0.865-0.861V8.185c0-0.475,0.387-0.861,0.865-0.861h2.59
			c0.479,0,0.865,0.386,0.865,0.861V9.524z"/>
		<circle fill="#EEEDEC" cx="23.296" cy="8.879" r="0.598"/>
		<path fill="none" d="M28.217,7.324h-2.592c-0.479,0-0.865,0.386-0.865,0.861v1.339c0,0.476,0.387,0.861,0.865,0.861h2.592
			c0.477,0,0.863-0.386,0.863-0.861V8.185C29.08,7.71,28.693,7.324,28.217,7.324z"/>
		<path fill="#EEEDEC" d="M29.143,5.913H2.888c-0.786,0-1.424,0.578-1.424,1.292v18.367c0,0.713,0.638,1.291,1.424,1.291h26.255
			c0.785,0,1.424-0.578,1.424-1.291V7.205C30.566,6.491,29.928,5.913,29.143,5.913z M16.026,22.537
			c-2.715,0-4.922-2.199-4.922-4.904c0-2.706,2.207-4.906,4.922-4.906c2.714,0,4.921,2.2,4.921,4.906
			C20.947,20.338,18.74,22.537,16.026,22.537z M29.08,9.524c0,0.476-0.387,0.861-0.863,0.861h-2.592
			c-0.479,0-0.865-0.386-0.865-0.861V8.185c0-0.475,0.387-0.861,0.865-0.861h2.592c0.477,0,0.863,0.386,0.863,0.861V9.524z"/>
	</g>
</g>
</svg>
