<?xml version="1.0" encoding="utf-8"?>
<!-- Generator: Adobe Illustrator 16.0.0, SVG Export Plug-In . SVG Version: 6.00 Build 0)  -->
<!DOCTYPE svg PUBLIC "-//W3C//DTD SVG 1.1//EN" "http://www.w3.org/Graphics/SVG/1.1/DTD/svg11.dtd">
<svg version="1.1" id="Capa_1" xmlns="http://www.w3.org/2000/svg" xmlns:xlink="http://www.w3.org/1999/xlink" x="0px" y="0px"
	 width="48px" height="51.585px" viewBox="0 0 48 51.585" enable-background="new 0 0 48 51.585" xml:space="preserve">
<path opacity="0.8" fill="#DEA03C" d="M0.664,11.534v28.518c0,6.062,5.153,10.976,11.513,10.976h23.646
	c6.358,0,11.513-4.914,11.513-10.976V11.534c0-6.063-5.154-10.977-11.513-10.977H12.177C5.817,0.558,0.664,5.472,0.664,11.534z
	 M10.725,26.717L32.169,8.679l2.216,1.858L15.152,26.714l19.252,16.161l-2.212,1.861L10.725,26.717z"/>
<polygon fill="#FFFFFF" points="34.385,10.537 15.152,26.714 34.404,42.875 32.192,44.736 10.725,26.717 32.169,8.679 "/>
<polygon fill="#FFFFFF" points="34.385,10.543 15.152,26.72 34.404,42.881 32.192,44.742 10.725,26.723 32.169,8.685 "/>
</svg>
