<?xml version="1.0" encoding="utf-8"?>
<!-- Generator: Adobe Illustrator 17.0.0, SVG Export Plug-In . SVG Version: 6.00 Build 0)  -->
<!DOCTYPE svg PUBLIC "-//W3C//DTD SVG 1.1//EN" "http://www.w3.org/Graphics/SVG/1.1/DTD/svg11.dtd">
<svg version="1.1" id="Capa_1" xmlns="http://www.w3.org/2000/svg" xmlns:xlink="http://www.w3.org/1999/xlink" x="0px" y="0px"
	 width="32px" height="32px" viewBox="0 0 32 32" enable-background="new 0 0 32 32" xml:space="preserve">
<g>
	<g opacity="0.2">
		<path fill="#505051" d="M16.002,21.824l-3.606-3.154L2.088,27.504c0.375,0.35,0.879,0.566,1.439,0.566h24.95
			c0.555,0,1.06-0.217,1.434-0.566L19.607,18.67L16.002,21.824z"/>
		<path fill="#505051" d="M29.914,7.817c-0.373-0.349-0.878-0.565-1.438-0.565H3.526c-0.556,0-1.061,0.216-1.434,0.569
			l13.909,11.922L29.914,7.817z"/>
		<polygon fill="#505051" points="1.431,9.08 1.431,26.375 11.49,17.826 		"/>
		<polygon fill="#505051" points="20.513,17.826 30.572,26.375 30.572,9.074 		"/>
	</g>
	<g>
		<path fill="#EEEDEC" d="M15.999,20.83l-3.605-3.154L2.086,26.51c0.375,0.352,0.878,0.566,1.438,0.566h24.951
			c0.555,0,1.059-0.215,1.434-0.566l-10.303-8.834L15.999,20.83z"/>
		<path fill="#EEEDEC" d="M29.912,6.824c-0.374-0.35-0.879-0.565-1.438-0.565H3.523c-0.555,0-1.06,0.216-1.433,0.57L15.999,18.75
			L29.912,6.824z"/>
		<polygon fill="#EEEDEC" points="1.428,8.086 1.428,25.381 11.487,16.832 		"/>
		<polygon fill="#EEEDEC" points="20.51,16.832 30.57,25.381 30.57,8.08 		"/>
	</g>
</g>
</svg>
