<?xml version="1.0" encoding="utf-8"?>
<!-- Generator: Adobe Illustrator 17.0.0, SVG Export Plug-In . SVG Version: 6.00 Build 0)  -->
<!DOCTYPE svg PUBLIC "-//W3C//DTD SVG 1.1//EN" "http://www.w3.org/Graphics/SVG/1.1/DTD/svg11.dtd">
<svg version="1.1" id="Capa_1" xmlns="http://www.w3.org/2000/svg" xmlns:xlink="http://www.w3.org/1999/xlink" x="0px" y="0px"
	 width="32px" height="32px" viewBox="0 0 32 32" enable-background="new 0 0 32 32" xml:space="preserve">
<g>
	<path opacity="0.2" fill="#505051" d="M24.622,25.103c-0.179,0.09-3.885,1.168-8.86,1.168c-2.548,0-4.465-0.236-8.382-1.143
		L7,25.011l-0.014-0.088v0.691L7,25.7l0.38,0.117c3.917,0.906,5.834,1.145,8.382,1.145c4.976,0,8.682-1.078,8.86-1.166l0.353-0.182
		h0.037v-0.691h-0.037L24.622,25.103z"/>
	<path opacity="0.2" fill="#505051" d="M10.727,8.635c-0.005,0.101-0.016,0.2-0.016,0.302c0,1.531,0.653,2.906,1.692,3.871
		c0.243-0.051,0.491-0.092,0.744-0.113C11.787,11.819,10.854,10.341,10.727,8.635z"/>
	<path opacity="0.2" fill="#505051" d="M18.853,12.694c0.252,0.023,0.5,0.063,0.743,0.113c1.04-0.965,1.692-2.34,1.692-3.871
		c0-0.102-0.01-0.201-0.016-0.302C21.148,10.341,20.213,11.819,18.853,12.694z"/>
	<path fill="#EEEDEC" d="M19.596,12.886c-0.243-0.05-0.491-0.09-0.743-0.112c1.36-0.875,2.296-2.354,2.42-4.06
		c0.009-0.129,0.016-0.258,0.016-0.389c0-2.92-2.367-5.287-5.288-5.287c-2.92,0-5.288,2.367-5.288,5.287
		c0,0.131,0.007,0.26,0.016,0.389c0.126,1.705,1.06,3.185,2.421,4.06c-0.253,0.023-0.501,0.063-0.744,0.112
		c-3.087,0.629-5.418,3.36-5.418,6.629v0.691v4.797L7,25.091l0.38,0.117c3.917,0.904,5.834,1.143,8.382,1.143
		c4.976,0,8.682-1.078,8.86-1.168l0.353-0.18h0.037v-4.797v-0.691C25.013,16.246,22.681,13.516,19.596,12.886z M18.048,18.009h-1.71
		v4.301h-0.575v-4.301h-1.812v-0.723h1.812v-2.074h0.575v2.074h1.71V18.009z"/>
</g>
</svg>
