<?xml version="1.0" encoding="utf-8"?>
<!-- Generator: Adobe Illustrator 16.0.0, SVG Export Plug-In . SVG Version: 6.00 Build 0)  -->
<!DOCTYPE svg PUBLIC "-//W3C//DTD SVG 1.1//EN" "http://www.w3.org/Graphics/SVG/1.1/DTD/svg11.dtd">
<svg version="1.1" id="Capa_1" xmlns="http://www.w3.org/2000/svg" xmlns:xlink="http://www.w3.org/1999/xlink" x="0px" y="0px"
	 width="32px" height="32px" viewBox="0 0 32 32" enable-background="new 0 0 32 32" xml:space="preserve">
<g>
	<path fill="#EEEDEC" d="M25.66,18.718c0,0-2.595-2.057-2.455-6.71c0,0,1.263-7.25-4.84-7.319c0-0.005,0.001-0.009,0.001-0.014
		c0-1.298-1.052-2.35-2.35-2.35c-1.287,0-2.33,1.035-2.347,2.318C12.38,4.64,8.5,5.5,9.035,11.422
		c0.42,4.65-0.491,5.682-3.367,8.417c0,0-2.222,2.554-2.222,5.801c0,0,13.971,2.276,25.09,0
		C28.536,25.641,28.957,21.734,25.66,18.718z"/>
	<path fill="#EEEDEC" d="M19.066,27.556h-6.033C16,32.646,19.066,27.556,19.066,27.556z"/>
</g>
</svg>
