<?xml version="1.0" encoding="utf-8"?>
<!-- Generator: Adobe Illustrator 17.0.0, SVG Export Plug-In . SVG Version: 6.00 Build 0)  -->
<!DOCTYPE svg PUBLIC "-//W3C//DTD SVG 1.1//EN" "http://www.w3.org/Graphics/SVG/1.1/DTD/svg11.dtd">
<svg version="1.1" id="Capa_1" xmlns="http://www.w3.org/2000/svg" xmlns:xlink="http://www.w3.org/1999/xlink" x="0px" y="0px"
	 width="32px" height="32px" viewBox="0 0 32 32" enable-background="new 0 0 32 32" xml:space="preserve">
<g opacity="0.7">
	<g id="calendar_2_" opacity="0.2">
		<path fill="#505051" d="M27.838,5.959H23.99V4.387c0-0.434-0.398-0.787-0.887-0.787c-0.489,0-0.889,0.354-0.889,0.787v1.572
			h-5.327V4.387C16.888,3.953,16.49,3.6,16,3.6c-0.491,0-0.889,0.354-0.889,0.787v1.572H9.785V4.387
			c0-0.434-0.397-0.787-0.888-0.787c-0.491,0-0.888,0.354-0.888,0.787v1.572H4.163c-1.31,0-2.369,0.938-2.369,2.096v18.6
			c0,1.156,1.059,2.096,2.369,2.096h23.675c1.309,0,2.367-0.94,2.367-2.096v-18.6C30.205,6.897,29.146,5.959,27.838,5.959z
			 M28.43,26.654c0,0.291-0.266,0.523-0.592,0.523H4.163c-0.327,0-0.592-0.232-0.592-0.523v-18.6c0-0.289,0.265-0.523,0.592-0.523
			h3.846v1.571c0,0.435,0.397,0.785,0.888,0.785c0.491,0,0.888-0.351,0.888-0.785V7.531h5.327v1.571
			c0,0.435,0.398,0.785,0.889,0.785c0.49,0,0.887-0.351,0.887-0.785V7.531h5.327v1.571c0,0.435,0.399,0.785,0.889,0.785
			c0.488,0,0.887-0.351,0.887-0.785V7.531h3.848c0.326,0,0.592,0.234,0.592,0.523V26.654z"/>
		<rect x="8.009" y="13.031" fill="#505051" width="3.551" height="2.359"/>
		<rect x="8.009" y="16.962" fill="#505051" width="3.551" height="2.359"/>
		<rect x="8.009" y="20.891" fill="#505051" width="3.551" height="2.359"/>
		<rect x="14.224" y="20.891" fill="#505051" width="3.552" height="2.359"/>
		<rect x="14.224" y="16.962" fill="#505051" width="3.552" height="2.359"/>
		<rect x="14.224" y="13.031" fill="#505051" width="3.552" height="2.359"/>
		<rect x="20.439" y="20.891" fill="#505051" width="3.551" height="2.359"/>
		<rect x="20.439" y="16.962" fill="#505051" width="3.551" height="2.359"/>
		<rect x="20.439" y="13.031" fill="#505051" width="3.551" height="2.359"/>
	</g>
	<g id="calendar_1_">
		<path fill="#EEEDEC" d="M27.838,5.109H23.99V3.537c0-0.436-0.398-0.787-0.887-0.787c-0.489,0-0.889,0.352-0.889,0.787v1.572
			h-5.327V3.537c0-0.436-0.397-0.787-0.888-0.787c-0.491,0-0.888,0.352-0.888,0.787v1.572H9.785V3.537
			c0-0.436-0.397-0.787-0.888-0.787c-0.491,0-0.888,0.352-0.888,0.787v1.572H4.163c-1.31,0-2.369,0.938-2.369,2.096v18.598
			c0,1.159,1.059,2.097,2.369,2.097h23.675c1.309,0,2.367-0.938,2.367-2.097V7.205C30.205,6.047,29.146,5.109,27.838,5.109z
			 M28.43,25.803c0,0.29-0.266,0.525-0.592,0.525H4.163c-0.328,0-0.593-0.235-0.593-0.525V7.205c0-0.29,0.265-0.525,0.593-0.525
			h3.846v1.573c0,0.435,0.397,0.784,0.888,0.784c0.491,0,0.888-0.35,0.888-0.784V6.68h5.327v1.573c0,0.435,0.397,0.784,0.888,0.784
			c0.491,0,0.888-0.35,0.888-0.784V6.68h5.327v1.573c0,0.435,0.399,0.784,0.889,0.784c0.488,0,0.887-0.35,0.887-0.784V6.68h3.848
			c0.326,0,0.592,0.235,0.592,0.525V25.803z"/>
		<rect x="8.009" y="12.183" fill="#EEEDEC" width="3.551" height="2.356"/>
		<rect x="8.009" y="16.109" fill="#EEEDEC" width="3.551" height="2.359"/>
		<rect x="8.009" y="20.039" fill="#EEEDEC" width="3.551" height="2.36"/>
		<rect x="14.224" y="20.039" fill="#EEEDEC" width="3.552" height="2.36"/>
		<rect x="14.224" y="16.109" fill="#EEEDEC" width="3.552" height="2.359"/>
		<rect x="14.224" y="12.183" fill="#EEEDEC" width="3.552" height="2.356"/>
		<rect x="20.438" y="20.039" fill="#EEEDEC" width="3.553" height="2.36"/>
		<rect x="20.438" y="16.109" fill="#EEEDEC" width="3.553" height="2.359"/>
		<rect x="20.438" y="12.183" fill="#EEEDEC" width="3.553" height="2.356"/>
	</g>
</g>
</svg>
