<?xml version="1.0" encoding="utf-8"?>
<!-- Generator: Adobe Illustrator 17.0.0, SVG Export Plug-In . SVG Version: 6.00 Build 0)  -->
<!DOCTYPE svg PUBLIC "-//W3C//DTD SVG 1.1//EN" "http://www.w3.org/Graphics/SVG/1.1/DTD/svg11.dtd">
<svg version="1.1" id="Capa_1" xmlns="http://www.w3.org/2000/svg" xmlns:xlink="http://www.w3.org/1999/xlink" x="0px" y="0px"
	 width="32px" height="32px" viewBox="0 0 32 32" enable-background="new 0 0 32 32" xml:space="preserve">
<g opacity="0.7">
	<g opacity="0.2">
		<g id="calendar_3_">
			<path fill="#505051" d="M5.066,4.338L5.023,28.014c-0.003,1.31,0.934,2.371,2.092,2.373l18.598,0.033
				c1.158,0.002,2.098-1.055,2.101-2.365l0.043-23.676c0.002-1.308-0.934-2.369-2.093-2.371L7.165,1.975
				C6.007,1.973,5.067,3.03,5.066,4.338z M25.76,3.783c0.29,0.001,0.524,0.268,0.524,0.593l-0.043,23.677
				c-0.001,0.328-0.236,0.592-0.526,0.592L7.117,28.611c-0.29-0.002-0.525-0.266-0.524-0.594L6.636,4.341
				c0-0.325,0.236-0.592,0.526-0.591L25.76,3.783z"/>
		</g>
		<rect x="9.052" y="7.107" fill="#505051" width="5.542" height="5.083"/>
		<rect x="15.761" y="7.107" fill="#505051" width="8.416" height="0.791"/>
		<rect x="15.761" y="9.254" fill="#505051" width="8.416" height="0.791"/>
		<rect x="15.761" y="11.232" fill="#505051" width="8.416" height="0.791"/>
		<rect x="9.052" y="13.586" fill="#505051" width="15.125" height="0.791"/>
		<rect x="9.052" y="15.803" fill="#505051" width="15.125" height="0.791"/>
		<rect x="9.052" y="17.983" fill="#505051" width="15.125" height="0.791"/>
		<rect x="9.052" y="20.23" fill="#505051" width="15.125" height="0.791"/>
		<rect x="8.876" y="22.691" fill="#505051" width="15.125" height="0.791"/>
		<rect x="8.876" y="25.162" fill="#505051" width="15.125" height="0.791"/>
	</g>
	<g>
		<g id="calendar_4_">
			<path fill="#EEEDEC" d="M5.007,3.942L4.964,27.619c-0.003,1.309,0.934,2.371,2.092,2.373l18.598,0.033
				c1.158,0.002,2.098-1.057,2.101-2.365l0.043-23.677c0.002-1.308-0.934-2.369-2.093-2.371L7.107,1.579
				C5.948,1.577,5.009,2.635,5.007,3.942z M25.701,3.388c0.29,0.001,0.524,0.268,0.524,0.593l-0.043,23.676
				c-0.001,0.328-0.236,0.594-0.526,0.592L7.059,28.215c-0.29,0-0.525-0.266-0.524-0.594L6.577,3.945
				c0-0.325,0.236-0.592,0.526-0.591L25.701,3.388z"/>
		</g>
		<rect x="8.993" y="6.712" fill="#EEEDEC" width="5.542" height="5.083"/>
		<rect x="15.702" y="6.712" fill="#EEEDEC" width="8.416" height="0.791"/>
		<rect x="15.702" y="8.858" fill="#EEEDEC" width="8.416" height="0.791"/>
		<rect x="15.702" y="10.837" fill="#EEEDEC" width="8.416" height="0.791"/>
		<rect x="8.993" y="13.19" fill="#EEEDEC" width="15.125" height="0.791"/>
		<rect x="8.993" y="15.407" fill="#EEEDEC" width="15.125" height="0.791"/>
		<rect x="8.993" y="17.588" fill="#EEEDEC" width="15.125" height="0.791"/>
		<rect x="8.993" y="19.836" fill="#EEEDEC" width="15.125" height="0.791"/>
		<rect x="8.817" y="22.295" fill="#EEEDEC" width="15.125" height="0.791"/>
		<rect x="8.817" y="24.766" fill="#EEEDEC" width="15.125" height="0.791"/>
	</g>
</g>
</svg>
