<?xml version="1.0" encoding="utf-8"?>
<!-- Generator: Adobe Illustrator 17.0.0, SVG Export Plug-In . SVG Version: 6.00 Build 0)  -->
<!DOCTYPE svg PUBLIC "-//W3C//DTD SVG 1.1//EN" "http://www.w3.org/Graphics/SVG/1.1/DTD/svg11.dtd">
<svg version="1.1" id="Capa_1" xmlns="http://www.w3.org/2000/svg" xmlns:xlink="http://www.w3.org/1999/xlink" x="0px" y="0px"
	 width="32px" height="32px" viewBox="0 0 32 32" enable-background="new 0 0 32 32" xml:space="preserve">
<g opacity="0.7">
	<path opacity="0.2" fill="#505051" d="M19.098,13.606c1.518-0.975,2.525-2.673,2.525-4.608c0-3.026-2.453-5.479-5.479-5.479
		c-3.027,0-5.481,2.453-5.481,5.479c0,1.936,1.008,3.634,2.523,4.608c-3.572,0.32-6.385,3.33-6.385,6.986v5.685l0.014,0.091
		l0.393,0.123c4.061,0.939,6.047,1.184,8.688,1.184c5.156,0,8.996-1.117,9.182-1.209l0.367-0.188h0.037v-5.685
		C25.483,16.937,22.672,13.927,19.098,13.606z"/>
	<path fill="#EEEDEC" d="M19.098,12.89c1.518-0.975,2.525-2.673,2.525-4.609c0-3.026-2.453-5.479-5.479-5.479
		c-3.027,0-5.481,2.453-5.481,5.479c0,1.937,1.008,3.635,2.523,4.609c-3.572,0.319-6.385,3.331-6.385,6.985v5.688l0.014,0.091
		l0.393,0.121c4.061,0.938,6.047,1.185,8.688,1.185c5.156,0,8.996-1.118,9.182-1.21l0.367-0.187h0.037v-5.688
		C25.483,16.221,22.672,13.21,19.098,12.89z"/>
</g>
</svg>
