<?xml version="1.0" encoding="utf-8"?>
<!-- Generator: Adobe Illustrator 16.0.0, SVG Export Plug-In . SVG Version: 6.00 Build 0)  -->
<!DOCTYPE svg PUBLIC "-//W3C//DTD SVG 1.1//EN" "http://www.w3.org/Graphics/SVG/1.1/DTD/svg11.dtd">
<svg version="1.1" id="Capa_1" xmlns="http://www.w3.org/2000/svg" xmlns:xlink="http://www.w3.org/1999/xlink" x="0px" y="0px"
	 width="32px" height="32px" viewBox="0 0 32 32" enable-background="new 0 0 32 32" xml:space="preserve">
<g>
	<path fill="#E3E2E1" d="M2.306,5.091v21.555h28.137V5.091H2.306z M4.367,10.617c0-1.472,1.193-2.664,2.664-2.664
		c1.471,0,2.664,1.192,2.664,2.664c0,1.471-1.193,2.663-2.664,2.663C5.56,13.28,4.367,12.088,4.367,10.617z M17.236,24.84
		c-0.223-1.4-0.851-2.746-1.964-3.592c1.588,1.178,2.029,2.649,2.289,3.592H7.031c0.188-2.596,2.4-4.643,5.103-4.643
		c1.183,0,2.272,0.392,3.138,1.051c1.325-1.845,3.513-3.054,5.994-3.054c3.869,0,7.035,2.931,7.305,6.646H17.236z"/>
	<path fill="#EFEEED" d="M1.556,4.413v21.555h28.137V4.413H1.556z M3.617,9.939c0-1.472,1.193-2.664,2.664-2.664
		c1.471,0,2.664,1.192,2.664,2.664c0,1.471-1.193,2.663-2.664,2.663C4.81,12.603,3.617,11.41,3.617,9.939z M16.487,24.162
		c-0.224-1.4-0.852-2.746-1.965-3.592c1.588,1.178,2.028,2.649,2.288,3.592H6.281c0.188-2.596,2.4-4.643,5.103-4.643
		c1.183,0,2.272,0.392,3.138,1.051c1.325-1.845,3.513-3.054,5.994-3.054c3.869,0,7.035,2.931,7.305,6.646H16.487z"/>
</g>
</svg>
